<?xml version="1.0" encoding="UTF-8"?>
<svg id="Layer_1" data-name="Layer 1" xmlns="http://www.w3.org/2000/svg" viewBox="0 0 950 950">
  <defs>
    <style>
      .cls-1 {
        fill: #332c2b;
      }

      .cls-2 {
        fill: #e3a413;
      }

      .cls-2, .cls-3 {
        fill-rule: evenodd;
      }

      .cls-3 {
        fill: #0b9444;
      }
    </style>
  </defs>
  <g id="svg2">
    <path d="m230.58,712.19c0,3.16.86,5.75,2.3,7.76,1.44,1.72,4.02,2.59,7.18,2.59,2.3,0,4.6-.29,6.9-.57s4.6-.86,6.9-1.44v-44.25l-8.33-1.44v-2.59h18.39v52.01l7.18,1.44v2.59h-16.38l-.57-4.6c-1.15.57-2.59,1.15-4.02,2.01-1.72.57-3.16,1.44-4.89,1.72-1.72.57-3.45,1.15-5.17,1.44s-3.45.57-4.89.57c-2.01,0-4.02-.29-5.75-.86s-3.16-1.44-4.6-2.87c-1.15-1.44-2.3-2.87-2.87-5.17-.57-2.01-1.15-4.6-1.15-7.76v-36.78l-7.18-1.44v-2.59h16.95v40.23Zm61.78-35.63c1.15-.57,2.59-1.44,4.02-2.01s3.16-1.44,4.89-2.01,3.45-1.15,4.89-1.44c1.72-.29,3.16-.57,4.6-.57,2.3,0,4.02.29,6.03.86,1.72.57,3.45,1.44,4.6,2.87,1.44,1.44,2.3,2.87,3.16,5.17.86,2.01,1.15,4.6,1.15,7.76v36.78l6.9,1.44v2.59h-24.14v-2.59l7.47-1.44v-35.92c0-3.45-.86-6.03-2.3-7.76-1.72-2.01-4.02-2.87-7.47-2.87-1.15,0-2.3,0-3.45.29-1.15,0-2.59.29-3.74.29s-2.3.29-3.45.57-2.01.29-2.59.57v44.54l7.47,1.44v2.59h-24.14v-2.59l6.61-1.44v-47.7l-6.61-1.44v-2.59h16.09l.57,4.6h-.57Zm64.37-22.99c0,.86-.29,1.72-.57,2.59s-.86,1.44-1.44,2.01-1.15,1.15-2.01,1.44-1.72.57-2.59.57-1.72-.29-2.59-.57-1.44-.86-2.01-1.44-1.15-1.15-1.44-2.01-.57-1.72-.57-2.59.29-1.72.57-2.59.86-1.44,1.44-2.01,1.15-1.15,2.01-1.44,1.72-.57,2.59-.57,1.72.29,2.59.57,1.44.86,2.01,1.44,1.15,1.15,1.44,2.01.57,1.72.57,2.59Zm-.57,70.12l9.48,1.44v2.59h-29.02v-2.59l9.48-1.44v-47.7l-8.05-1.44v-2.59h17.82v52.01l.29-.29Zm67.53-47.99l-22.41,53.45h-4.31l-23.28-53.16-5.75-1.44v-2.59h26.15v2.59l-8.91,1.72,16.38,38.79,15.52-38.79-8.91-1.44v-2.59h20.69v2.59l-5.46,1.15.29-.29Zm20.98,23.85v1.15c0,2.87.29,5.75.57,8.33s1.15,5.17,2.59,7.18c1.15,2.01,2.87,3.74,5.17,4.89s5.17,1.72,8.91,1.72c1.15,0,2.59,0,3.74-.29,1.44,0,2.59-.29,4.02-.29,1.44-.29,2.59-.29,3.74-.57s2.3-.29,3.45-.57v3.45c-.86.57-2.01,1.15-3.45,1.72-1.15.57-2.59,1.15-4.31,1.44-1.44.57-3.16.86-4.89,1.15s-3.45.29-5.17.29c-4.6,0-8.62-.57-11.78-2.01-3.16-1.15-5.75-3.16-7.76-5.75s-3.45-5.75-4.31-9.2c-.86-3.74-1.44-8.05-1.44-12.64,0-9.77,2.01-16.95,6.03-21.84s10.06-7.18,17.53-7.18c2.87,0,5.75.29,8.33,1.15s4.89,2.01,6.9,4.02c2.01,1.72,3.45,4.31,4.6,7.47s1.72,7.18,1.72,11.78v4.89h-34.48l.29-.29Zm12.93-24.43c-2.3,0-4.02.57-5.75,1.44s-2.87,2.3-4.02,4.02-1.72,3.74-2.3,6.32-.86,5.17-.86,8.33h23.85c0-2.87-.29-5.75-.57-8.33s-.86-4.6-1.72-6.32-2.01-2.87-3.45-4.02c-1.44-.86-3.16-1.44-5.46-1.44h.29Zm65.23-4.89v15.23h-2.59l-3.45-6.61c-1.15,0-2.3,0-3.45.29s-2.59.29-3.74.57-2.59.57-3.74.86-2.3.86-3.16,1.15v41.96l9.48,1.44v2.59h-26.72v-2.59l7.18-1.44v-47.7l-7.18-1.44v-2.59h16.38l.57,6.9c.86-.86,2.3-1.72,3.74-2.59,1.72-.86,3.16-2.01,5.17-2.87,1.72-.86,3.74-1.72,5.46-2.3s3.45-.86,4.89-.86h1.15Zm44.25,41.96c0,2.59-.29,4.89-1.15,6.9s-2.01,4.02-3.74,5.46-3.74,2.59-6.61,3.45c-2.59.86-5.75,1.15-9.48,1.15-2.01,0-3.74,0-5.46-.29l-5.17-.86c-1.44-.29-2.87-.57-4.02-.86s-2.01-.57-2.59-.86v-13.79h2.59l2.87,7.76c1.15,1.15,2.87,2.01,4.89,2.87s4.31,1.15,6.9,1.15c3.74,0,6.61-.86,8.62-2.3,2.01-1.72,2.87-4.02,2.87-7.47,0-2.01-.29-3.74-1.15-4.89s-2.01-2.3-3.16-3.16c-1.44-.86-2.87-1.72-4.6-2.3s-3.45-1.15-5.17-1.72-3.45-1.15-5.46-2.01c-1.72-.86-3.16-1.72-4.6-2.87s-2.59-2.59-3.16-4.6c-.86-1.72-1.15-4.02-1.15-6.61s.57-4.89,1.44-6.9,2.3-3.74,3.74-4.89c1.72-1.44,3.74-2.3,6.03-3.16,2.3-.57,4.89-1.15,7.47-1.15s5.46.29,8.05.57,5.17.86,7.47,1.15v12.07h-2.87l-2.59-6.61c-1.15-.86-2.59-1.72-4.31-2.01-1.72-.57-3.74-.57-5.75-.57-3.16,0-5.75.86-7.47,2.3-1.72,1.72-2.59,3.74-2.59,6.32,0,1.72.29,3.45,1.15,4.6s2.01,2.3,3.45,2.87c1.44.86,2.87,1.44,4.6,2.01s3.45,1.15,5.46,1.72c1.72.57,3.74,1.44,5.46,2.3s3.45,1.72,4.6,3.16c1.44,1.15,2.59,2.87,3.45,4.6s1.15,4.02,1.15,6.9v.57Zm27.01-58.62c0,.86-.29,1.72-.57,2.59s-.86,1.44-1.44,2.01-1.15,1.15-2.01,1.44-1.72.57-2.59.57-1.72-.29-2.59-.57-1.44-.86-2.01-1.44-1.15-1.15-1.44-2.01-.57-1.72-.57-2.59.29-1.72.57-2.59.86-1.44,1.44-2.01,1.15-1.15,2.01-1.44,1.72-.57,2.59-.57,1.72.29,2.59.57,1.44.86,2.01,1.44,1.15,1.15,1.44,2.01.57,1.72.57,2.59Zm-.57,70.12l9.48,1.44v2.59h-29.02v-2.59l9.48-1.44v-47.7l-8.05-1.44v-2.59h17.82v52.01l.29-.29Zm31.9,5.46c-3.74,0-6.61-1.15-8.62-3.45s-2.87-5.46-2.87-9.48v-39.37h-7.47v-2.59l7.47-2.3,6.03-12.64h3.74v12.64h12.93v4.89h-12.93v38.22c0,2.59.57,4.6,1.72,5.75,1.15,1.44,2.59,2.01,4.6,2.01,1.44,0,2.87,0,4.31-.29s2.87-.29,4.02-.57v4.02c-.57.29-1.44.86-2.3,1.15s-2.01.86-3.16,1.15-2.3.57-3.74.86-2.59.29-4.02.29l.29-.29Zm41.67-58.62c2.59,0,4.89.29,7.18.57,2.3.57,4.02,1.44,5.75,2.59s2.87,2.59,3.74,4.6,1.44,4.31,1.44,7.47v37.93l6.9,1.44v2.59h-15.52l-1.15-5.46c-.57.57-1.44,1.15-2.3,2.01-1.15.86-2.3,1.44-3.74,2.3-1.44.57-3.16,1.15-4.89,1.72-2.01.57-4.02.57-6.32.57-2.59,0-4.89-.29-6.9-1.15-1.72-.86-3.45-2.01-4.6-3.45s-2.01-3.16-2.3-5.46c-.57-2.01-.57-4.31-.57-6.61,0-2.59.29-4.6.86-6.32s1.44-3.45,2.59-4.6,2.3-2.3,3.74-2.87c1.44-.86,3.16-1.44,4.6-1.72,1.72-.29,3.45-.86,5.46-.86,2.01-.29,3.74-.29,5.75-.29l8.33-.29v-8.91c0-1.72-.29-3.16-.29-4.6-.29-1.44-.86-2.59-1.44-3.45s-1.44-1.72-2.59-2.3-2.59-.86-4.31-.86c-2.01,0-3.74.29-5.75.86s-3.74,1.15-5.17,2.01l-2.01,6.9h-3.45v-12.36c2.59-.57,5.17-1.15,8.05-1.44s5.75-.57,8.91-.57Zm8.05,28.74l-7.76.29c-2.3,0-4.31.29-6.03.57s-3.16,1.15-4.31,2.01-2.01,2.3-2.59,3.74c-.57,1.72-.86,3.74-.86,6.03,0,6.9,2.87,10.63,8.62,10.63,2.59,0,5.17-.29,6.9-.86,2.01-.57,4.02-1.44,6.03-2.3v-20.12Zm61.78,12.93c0,2.59-.29,4.89-1.15,6.9s-2.01,4.02-3.74,5.46-3.74,2.59-6.61,3.45c-2.59.86-5.75,1.15-9.48,1.15-2.01,0-3.74,0-5.46-.29l-5.17-.86c-1.44-.29-2.87-.57-4.02-.86s-2.01-.57-2.59-.86v-13.79h2.59l2.87,7.76c1.15,1.15,2.87,2.01,4.89,2.87s4.31,1.15,6.9,1.15c3.74,0,6.61-.86,8.62-2.3,2.01-1.72,2.87-4.02,2.87-7.47,0-2.01-.29-3.74-1.15-4.89s-2.01-2.3-3.16-3.16c-1.44-.86-2.87-1.72-4.6-2.3l-5.17-1.72c-1.72-.57-3.45-1.15-5.46-2.01-1.72-.86-3.16-1.72-4.6-2.87s-2.59-2.59-3.16-4.6c-.86-1.72-1.15-4.02-1.15-6.61s.57-4.89,1.44-6.9,2.3-3.74,3.74-4.89c1.72-1.44,3.74-2.3,6.03-3.16,2.3-.57,4.89-1.15,7.47-1.15s5.46.29,8.05.57,5.17.86,7.47,1.15v12.07h-2.87l-2.59-6.61c-1.15-.86-2.59-1.72-4.31-2.01-1.72-.57-3.74-.57-5.75-.57-3.16,0-5.75.86-7.47,2.3-1.72,1.72-2.59,3.74-2.59,6.32,0,1.72.29,3.45,1.15,4.6s2.01,2.3,3.45,2.87c1.44.86,2.87,1.44,4.6,2.01s3.45,1.15,5.46,1.72c1.72.57,3.74,1.44,5.46,2.3s3.45,1.72,4.6,3.16c1.44,1.15,2.59,2.87,3.45,4.6s1.15,4.02,1.15,6.9v.57Z"/>
    <path d="m205.01,835.18h-2.01l-17.82-56.61v51.73l6.61,1.44v3.74h-17.24v-3.74l6.32-1.44v-57.19l-6.32-1.44v-3.74h18.97l13.79,43.97,14.08-43.97h19.54v3.74l-6.32,1.44v57.19l6.32,1.44v3.74h-24.14v-3.74l6.61-1.44v-51.73l-18.1,56.61h-.29Zm53.45-3.74v3.74h-14.66v-3.74l3.74-1.44,17.24-62.65h10.35l17.24,62.65,3.74,1.44v3.74h-21.55v-3.74l5.46-1.44-4.6-17.24h-18.68l-4.31,17.24,6.32,1.44h-.29Zm7.76-53.74l-8.05,29.6h15.81l-7.76-29.6Zm56.61-6.03l-7.47,1.44v56.9h9.77c2.87,0,5.46,0,7.47-.29s3.16-.57,4.02-.57l2.87-13.79h3.16l-1.44,20.4h-43.68v-3.74l6.32-1.44v-57.19l-6.03-1.44v-3.74h25v3.74-.29Zm43.1,58.34l6.32,1.44v3.74h-23.85v-3.74l6.32-1.44v-56.9l-6.32-1.44v-3.74h23.85v3.74l-6.32,1.44v56.9Zm61.78-62.07v3.74l-6.03,1.44-16.09,19.54,21.27,37.64,4.6,1.44v3.74h-15.81l-18.1-32.18-4.31,4.89v22.41l6.9,1.44v3.74h-24.43v-3.74l6.32-1.44v-57.19l-6.32-1.44v-3.74h23.85v3.74l-6.32,1.44v27.3l22.13-27.3-4.31-1.44v-3.74h16.67v-.29Zm34.77,60.92c2.01,0,3.74-.29,5.17-1.15s2.59-2.01,3.45-3.45,1.72-3.16,2.01-5.17c.57-2.01.57-4.31.57-6.61v-39.37l-6.61-1.44v-3.74h16.38v3.74l-5.46,1.44v39.08c0,2.87-.29,5.75-.86,8.62s-1.72,5.46-2.87,7.76c-1.44,2.3-3.45,4.02-5.75,5.46s-5.46,2.01-8.91,2.01-6.32-.57-8.91-1.72-4.6-2.59-6.32-4.89c-1.72-2.01-2.87-4.6-3.74-7.76s-1.15-6.32-1.15-10.35v-38.51l-5.46-1.44v-3.74h22.99v3.74l-6.32,1.44v39.37c0,2.59.29,4.89.57,6.9.57,2.01,1.15,3.74,2.01,5.17s2.01,2.59,3.45,3.45,3.16,1.15,5.17,1.15h.57Zm27.01-14.37h3.16l1.72,10.63c.57.86,1.15,1.44,2.01,2.3.86.57,1.72,1.44,2.59,1.72.86.57,2.01.86,3.16,1.15s2.3.57,3.45.57c2.01,0,3.45-.29,4.89-.86s2.3-1.44,3.16-2.3c.86-1.15,1.44-2.3,1.72-3.74s.57-3.16.57-4.89c0-2.01-.29-3.74-1.15-4.89-.86-1.44-1.72-2.3-2.87-3.45-1.15-.86-2.59-1.72-4.02-2.59-1.44-.57-3.16-1.44-4.89-2.3s-3.16-1.72-4.89-2.87c-1.44-1.15-2.87-2.3-4.02-4.02s-2.3-3.45-2.87-5.75c-.86-2.3-1.15-5.17-1.15-8.33,0-6.03,1.44-10.35,4.31-13.51s7.18-4.6,12.64-4.6c1.15,0,2.3,0,3.45.29,1.15,0,2.3.29,3.45.57s2.3.29,3.45.57,2.01.57,2.87.86v15.81h-3.16l-1.72-9.2c-1.15-1.15-2.3-2.01-3.74-2.59s-3.16-1.15-4.89-1.15-3.16.29-4.31.57c-1.15.57-2.01,1.15-2.87,2.01s-1.44,1.72-1.72,2.87-.57,2.3-.57,3.74c0,1.72.29,3.16,1.15,4.6.86,1.15,1.72,2.3,2.87,3.16s2.59,1.72,4.02,2.3,3.16,1.44,4.89,2.3,3.16,1.72,4.89,2.87c1.44,1.15,2.87,2.3,4.02,4.02s2.3,3.45,2.87,5.75c.86,2.3,1.15,4.89,1.15,8.33,0,3.16-.29,6.32-1.15,8.91-.57,2.59-1.72,4.89-3.16,6.61s-3.45,3.16-5.75,4.31-5.17,1.44-8.33,1.44c-1.44,0-3.16,0-4.6-.29l-4.31-.86c-1.44-.29-2.59-.57-3.74-1.15-1.15-.29-2.3-.86-2.87-1.44v-18.1l.29.57Zm41.09,0h3.16l1.72,10.63c.57.86,1.15,1.44,2.01,2.3.86.57,1.72,1.44,2.59,1.72.86.57,2.01.86,3.16,1.15s2.3.57,3.45.57c2.01,0,3.45-.29,4.89-.86s2.3-1.44,3.16-2.3c.86-1.15,1.44-2.3,1.72-3.74s.57-3.16.57-4.89c0-2.01-.29-3.74-1.15-4.89-.86-1.44-1.72-2.3-2.87-3.45-1.15-.86-2.59-1.72-4.02-2.59-1.44-.57-3.16-1.44-4.89-2.3s-3.16-1.72-4.89-2.87c-1.44-1.15-2.87-2.3-4.02-4.02s-2.3-3.45-2.87-5.75c-.86-2.3-1.15-5.17-1.15-8.33,0-6.03,1.44-10.35,4.31-13.51s7.18-4.6,12.64-4.6c1.15,0,2.3,0,3.45.29,1.15,0,2.3.29,3.45.57s2.3.29,3.45.57,2.01.57,2.87.86v15.81h-3.16l-1.72-9.2c-1.15-1.15-2.3-2.01-3.74-2.59s-3.16-1.15-4.89-1.15-3.16.29-4.31.57c-1.15.57-2.01,1.15-2.87,2.01s-1.44,1.72-1.72,2.87-.57,2.3-.57,3.74c0,1.72.29,3.16,1.15,4.6.86,1.15,1.72,2.3,2.87,3.16s2.59,1.72,4.02,2.3,3.16,1.44,4.89,2.3,3.16,1.72,4.89,2.87c1.44,1.15,2.87,2.3,4.02,4.02s2.3,3.45,2.87,5.75c.86,2.3,1.15,4.89,1.15,8.33,0,3.16-.29,6.32-1.15,8.91-.57,2.59-1.72,4.89-3.16,6.61s-3.45,3.16-5.75,4.31-5.17,1.44-8.33,1.44c-1.44,0-3.16,0-4.6-.29l-4.31-.86c-1.44-.29-2.59-.57-3.74-1.15-1.15-.29-2.3-.86-2.87-1.44v-18.1l.29.57Zm52.59,16.95v3.74h-14.66v-3.74l3.74-1.44,17.24-62.65h10.35l17.24,62.65,3.74,1.44v3.74h-21.55v-3.74l5.46-1.44-4.6-17.24h-18.68l-4.31,17.24,6.32,1.44h-.29Zm7.76-53.74l-8.05,29.6h15.81l-7.76-29.6Zm56.61-6.03l-7.47,1.44v56.9h9.77c2.87,0,5.46,0,7.47-.29s3.16-.57,4.02-.57l2.87-13.79h3.16l-1.44,20.4h-43.68v-3.74l6.32-1.44v-57.19l-6.03-1.44v-3.74h25v3.74-.29Zm24.14,59.77l6.32-1.44v-57.19l-6.32-1.44v-3.74h41.38v16.95h-3.16l-1.15-10.63c-.86,0-1.72-.29-2.87-.29s-2.3-.29-3.45-.29h-12.93v24.43h12.64l1.15-7.47h3.16v20.69h-3.16l-1.15-7.47h-12.64v25.86h13.51c1.44,0,2.59,0,3.45-.29,1.15,0,2.01,0,2.59-.29.86,0,1.44-.29,1.72-.29l2.01-12.36h3.16l-.57,18.68h-43.68v-3.74.29Zm49.43,3.74v-3.74l6.32-1.44v-56.9l-6.32-1.44v-3.74h23.85v3.74l-6.32,1.44v24.71h19.83v-24.71l-6.32-1.44v-3.74h23.85v3.74l-6.32,1.44v56.9l6.32,1.44v3.74h-23.85v-3.74l6.32-1.44v-26.72h-19.83v26.72l6.32,1.44v3.74h-23.85Z"/>
    <path class="cls-2" d="m475.71,23.95c-.29-1.72-.57-2.01-.86,0-8.33,83.62-151.44,63.22-100.58,184.2-110.64-68.11-238.8,93.11-71.27,197.71.57-4.6,0-13.79.29-18.68-81.61-70.4-9.77-183.34,87.07-161.5-13.51-86.78,57.47-78.16,82.19-108.62v13.22c-1.44.86-2.59,2.59-2.59,4.31v16.67c0,2.01,1.15,3.45,2.59,4.31v8.91c-1.44.86-2.59,2.59-2.59,4.31v5.75c0,.29-.29.29-.29.57l-6.03,14.08c-1.72.29-2.87,1.44-3.74,2.87l-6.9,15.23c-.86,1.72-.57,4.02.86,5.46l-3.45,7.76c-1.44.57-2.59,1.44-3.16,2.87l-6.9,15.23c-.29.57-.29,1.15-.57,1.72-.57.29-1.15.29-1.72.57-5.75,2.59-6.32,5.46,0,8.62,17.53,10.92,25.58,30.17,23.56,58.05-30.75,4.6-49.43,21.55-44.83,39.37,8.33,32.47,25.86,42.53,44.54,49.71,1.72,20.98-.86,40.81-12.64,57.76h0c-8.91,8.91-29.31,10.63,0,18.68,16.38,2.87,35.35,2.3,57.19-.29,23.28-8.05,4.02-8.91-3.74-18.97-11.21-16.38-14.94-30.75-12.93-56.61,28.74-10.35,40.23-30.17,45.4-53.45,1.44-18.39-19.83-31.61-45.4-35.63-1.15-30.75,6.9-49.43,22.7-57.47,7.47-3.74,7.76-6.9,0-9.48q-.29,0-.57-.29c0-.86,0-1.44-.57-2.3l-6.9-15.23c-.86-1.72-2.3-2.87-4.02-2.87l-2.87-6.9c1.44-1.44,1.72-3.74.86-5.46l-6.9-15.23c-.57-1.44-2.01-2.59-3.45-2.87l-6.03-14.37c0-.29-.29-.57-.29-.57v-5.75c0-2.01-1.15-3.45-2.59-4.31v-8.91c1.44-.86,2.59-2.59,2.59-4.31v-16.67c0-2.01-1.15-3.45-2.59-4.31v-11.78c25.86,28.74,94.26,21.84,80.75,106.9,96.84-21.84,168.68,91.09,87.07,161.5.57,4.6,0,13.79.29,18.68,167.53-104.6,39.37-265.81-71.27-197.71,50.86-120.98-92.24-100.58-100.58-184.2l.86-.29Zm8.05,179.89v1.15c0,1.15-.86,2.01-2.01,2.3v12.07c0,2.01-1.15,3.45-2.59,4.31v12.07c6.61,0,12.93.57,18.68,1.72l-4.31-9.48c-.86-1.72-.57-3.74.57-5.17l-3.16-7.47c-1.44-.29-2.87-1.44-3.45-2.87l-4.02-9.2.29.57Zm-5.17,3.45c-.57-.29-1.15-.86-1.15-1.72-.29,0-.57-.29-.86-.29h-.57c-1.15,0-2.3,1.15-2.3,2.3v7.76c.57-.57,1.15-.86,1.72-.86h1.72c.57,0,1.15.29,1.72.57v-8.05l-.29.29Zm-1.44-9.2v-6.9h-2.01c-1.72,0-3.16-.86-4.02-2.01l-1.15,2.87c1.15,1.44,1.72,3.45.86,5.46l-6.9,15.23c-.86,1.72-2.3,2.59-3.74,2.87l-3.16,7.18c1.44,1.44,2.01,3.74,1.15,5.75l-4.31,9.48c6.03-.86,12.36-1.44,18.68-1.72v-12.07c-1.44-.86-2.59-2.59-2.59-4.31v-16.67c0-2.87,2.3-5.17,5.17-5.17h2.01Zm0-14.37h0c0-.57.29-1.15.57-1.44l-1.44-3.45c-.57-1.15,0-2.59,1.15-3.16l1.15-.57v-.57c0-.29,0-.57-.29-.86-.29.29-.86.57-1.44.57h-1.72c-.57,0-1.15-.29-1.44-.57,0,.29-.29.57-.29.86v.57l1.15.57c1.15.57,1.72,2.01,1.15,3.16l-2.01,4.6c.29.57,1.15.86,1.72.86h.57c.29,0,.57,0,.86-.29l.29-.29Zm1.44-44.25c-.57.57-1.15.57-1.72.57h-1.72c-.57,0-1.15-.29-1.72-.86v8.62c.29-.29.86-.57,1.72-.57h1.72c.57,0,1.15.29,1.72.57v-8.62.29Zm-17.24,58.34c.29.57.57.86,1.15.86l1.72.57c.57.29,1.44.29,2.01,0,0,.29,0,.57-.29.86l-3.16,6.9v.29c-.29-.57-.57-.86-1.15-1.15l-1.72-.57c-.57-.29-1.44-.29-2.01,0q0-.29.29-.57l3.16-6.9s0-.29.29-.29h-.29Zm29.02.29l-.86.86-1.72.57c-.57.29-1.44.29-2.01,0,0,.29,0,.86.29,1.15l2.87,6.61c.29-.29.57-.57,1.15-.86l1.72-.57c.86-.29,1.72-.29,2.3.29q0-.29-.29-.57l-3.16-6.9c0-.29-.29-.29-.29-.29v-.29Zm-41.67,31.04c.29.29.57.57.86.57l1.72.57c.86.29,1.72.29,2.59-.29,0,.29,0,.86-.29,1.15l-3.16,6.9s0,.29-.29.29c-1.15.29-2.01.29-3.16.57h-.29c-1.15-.57-1.72-1.72-1.15-2.87l2.87-6.61.29-.29Zm54.6-.57c-.29.57-.57,1.15-1.15,1.15l-1.72.57c-.57.29-1.15.29-1.72,0q0,.29.29.57l3.16,6.9s0,.29.29.29c1.15.29,2.01.29,2.87.57l.29-.29c1.15-.57,1.72-1.72,1.15-2.87l-3.16-6.9c0-.29-.29-.29-.29-.57v.57Z"/>
    <path d="m449.56,354.13c0,2.01-.29,4.6-.57,7.47,0,.57-.29,3.16-.86,7.47h-1.15c0-.57,0-2.3.29-4.89,0-4.89-.57-9.48-2.01-13.79-1.15-3.45-2.59-6.61-4.31-9.48-.86-1.44-2.3-3.16-4.02-5.46l3.45-7.47c1.72,2.3,3.45,4.31,4.6,6.03,1.72,2.59,2.87,5.46,3.74,8.62.86,3.45,1.44,7.47,1.44,11.78l-.57-.29Z"/>
    <path d="m472.83,361.32l-2.01,7.47c-2.3-1.44-4.02-3.74-4.6-7.18-.57-2.87-.86-7.76-.86-14.66-1.72.57-2.87.86-3.45,1.15-.86.29-1.44.29-2.3.29-2.59,0-4.6-.57-6.03-1.72s-2.3-2.59-2.3-4.6c0-1.44.29-3.16,1.15-5.46.86-2.59,2.01-4.89,3.45-6.61,2.01-2.01,4.02-3.16,6.61-3.16,2.01,0,3.45,1.15,4.31,3.16.86,1.72,1.44,4.02,1.72,7.47.29,2.01.29,4.89.29,8.91.57,5.46,1.15,9.2,2.01,11.21.29.86,1.15,2.3,2.3,3.74h-.29Zm-8.05-20.69c0-2.01-.29-3.74-.86-4.89-.86-1.44-2.01-2.3-4.02-2.3-1.44,0-2.87.57-4.02,1.72-1.44,1.15-2.01,2.01-2.01,2.87s.57,1.72,1.72,2.3,2.59.86,4.31.86c.57,0,1.44,0,2.59-.29,1.15,0,1.72-.29,2.3-.29Z"/>
    <path d="m494.1,359.88l-1.44,8.05c-1.44-1.15-2.59-2.01-3.45-2.87-1.44-1.44-2.3-3.16-2.87-5.46-.86-2.59-1.15-5.75-1.15-9.77,0-1.44,0-2.87.29-4.31,0-.29.29-2.87.86-6.9-1.15.29-2.01.29-2.59.57-1.72.29-3.16.57-4.31.57-3.74,0-6.03-.29-7.18-1.15-.86-.57-1.44-1.72-1.44-3.74v-6.9l1.15-.29c.57,1.44,1.15,2.3,1.72,2.59,1.15.86,2.87,1.44,5.46,1.44,1.72,0,4.02-.29,6.32-.57.57,0,1.72-.29,3.74-.86-.29,2.3-.57,4.31-.86,5.46-.29,2.01-.29,3.74-.29,5.46,0,3.74.29,6.9.86,9.48.57,2.01,1.44,4.02,2.3,5.46.29.57,1.44,1.72,2.87,3.74Z"/>
    <path d="m513.64,361.32l-2.01,7.47c-2.3-1.44-4.02-3.74-4.6-7.18-.57-2.87-.86-7.76-.86-14.66-1.72.57-2.87.86-3.45,1.15-.86.29-1.44.29-2.3.29-2.59,0-4.6-.57-6.03-1.72s-2.3-2.59-2.3-4.6c0-1.44.29-3.16,1.15-5.46.86-2.59,2.01-4.89,3.45-6.61,2.01-2.01,4.02-3.16,6.61-3.16,2.01,0,3.45,1.15,4.31,3.16.86,1.72,1.44,4.02,1.72,7.47.29,2.01.29,4.89.29,8.91.57,5.46,1.15,9.2,2.01,11.21.29.86,1.15,2.3,2.3,3.74h-.29Zm-8.05-20.69c0-2.01-.29-3.74-.86-4.89-.86-1.44-2.01-2.3-4.02-2.3-1.44,0-2.87.57-4.02,1.72-1.44,1.15-2.01,2.01-2.01,2.87s.57,1.72,1.72,2.3,2.59.86,4.31.86c.57,0,1.44,0,2.59-.29,1.15,0,1.72-.29,2.3-.29Z"/>
    <path class="cls-3" d="m570.25,267.35c56.9,33.05,95.41,94.83,95.41,165.81,0,105.75-85.35,191.39-190.24,191.39s-190.24-85.63-190.24-191.39c0-72.42,39.94-135.35,98.85-167.82-32.76,27.01-53.74,68.39-53.74,114.66,0,81.61,65.23,147.99,145.69,147.99s145.69-66.09,145.69-147.99c0-45.12-19.83-85.63-51.44-112.65Z"/>
    <path class="cls-1" d="m221.39,914.5l.29-1.44,5.75-.57,5.46-30.75h-6.32c-.57,0-1.15,0-1.44.29-.29,0-.86,0-1.15.29l-1.72,5.46h-1.72l1.44-8.33h28.16l-1.44,8.33h-1.72l.29-5.46c-.57,0-1.44-.29-2.87-.29-1.15,0-2.87-.29-4.89-.29h-1.15l-5.46,30.75,5.46.57-.29,1.44h-16.67Zm33.33-35.35l-3.16-.57.29-1.15h7.47l-2.3,12.93c0,.29-.29.86-.29,1.15,0,.57-.29.86-.29,1.44s-.29.86-.29,1.15,0,.57-.29.86c.57-.86,1.15-1.44,2.01-2.3.57-.57,1.44-1.44,2.3-1.72.86-.57,1.72-.86,2.3-1.15.86-.29,1.72-.57,2.59-.57s1.44,0,2.3.29l1.72.86c.57.57.86,1.15,1.15,1.72s.29,1.44.29,2.59v.86c0,.29,0,.86-.29,1.15,0,.29-.29.86-.29,1.44s0,.86-.29,1.15l-2.3,13.51,3.45.57-.29,1.15h-7.76l2.59-15.23c0-.29,0-.86.29-1.15,0-.29,0-.86.29-1.15,0-.29,0-.86.29-1.15v-.86c0-.86-.29-1.44-.57-2.01s-1.15-.86-2.01-.86-1.44.29-2.3.57-1.44.86-2.3,1.15c-.57.57-1.44,1.15-2.01,1.72s-1.15,1.44-1.44,2.01l-2.87,16.67h-4.31l6.32-35.35v.29Zm41.38,15.52c0,1.15-.29,2.3-1.15,3.16-.57,1.15-1.72,2.01-3.16,2.87s-3.16,1.44-5.17,2.01-4.31.86-6.9,1.15v2.01c0,.86,0,1.72.29,2.59s.57,1.44.86,2.01.86,1.15,1.72,1.44c.57.29,1.72.57,2.87.57,1.44,0,3.16-.29,4.31-.86,1.44-.57,2.59-1.15,3.74-1.72l.86,1.15c-.57.57-1.15.86-2.01,1.44s-1.44.86-2.59,1.44c-.86.29-1.72.86-2.87,1.15-.86.29-2.01.29-2.87.29-1.44,0-2.87-.29-3.74-.57-1.15-.29-2.01-1.15-2.87-1.72-.86-.86-1.15-1.72-1.72-2.87-.29-1.15-.57-2.3-.57-3.74s.29-3.16.57-4.6.86-2.87,1.44-4.02,1.44-2.3,2.3-3.45,1.72-2.01,2.87-2.59,2.01-1.15,3.16-1.72c1.15-.29,2.3-.57,3.45-.57s2.01,0,2.87.29,1.72.57,2.3,1.15,1.15,1.15,1.44,1.72.57,1.44.57,2.01Zm-16.09,7.47c2.01-.29,3.45-.57,4.89-.86,1.44-.57,2.59-1.15,3.45-1.72s1.72-1.44,2.01-2.3c.57-.86.57-1.72.57-2.59s-.29-1.72-.86-2.3-1.44-.86-2.3-.86c-1.15,0-2.01.29-2.87.86s-1.72,1.44-2.59,2.59-1.44,2.3-1.72,3.45c-.57,1.15-.86,2.59-1.15,3.74h.57Zm47.42-7.18c1.72,0,3.16-.29,4.6-.57,1.15-.29,2.3-.86,2.87-1.44.86-.57,1.15-1.44,1.44-2.3s.57-2.01.57-3.45c0-1.72-.57-3.16-1.72-4.02s-2.87-1.44-5.75-1.44h-4.02l-2.3,12.93h4.31v.29Zm-.57,17.53c2.01,0,3.45-.29,4.89-.57,1.15-.29,2.3-.86,2.87-1.72.86-.86,1.15-1.72,1.44-2.59.29-1.15.57-2.3.57-3.45,0-2.3-.86-4.02-2.3-5.17s-3.74-1.72-6.61-1.72h-4.89l-2.59,14.94h6.9l-.29.29Zm-15.52,2.3l.29-1.44,3.45-.57,5.46-31.04-4.31-.57.29-1.44h14.37c2.3,0,4.02.29,5.46.57s2.59.86,3.45,1.44,1.44,1.44,2.01,2.3c.29.86.57,2.01.57,2.87,0,1.44-.29,2.59-.57,3.45-.57,1.15-1.15,2.01-1.72,2.59-.86.86-1.72,1.44-2.87,1.72-1.15.57-2.3.86-3.45.86,1.15,0,2.3.29,3.45.57s2.01.86,2.59,1.44c.86.57,1.44,1.44,1.72,2.3.57.86.57,2.01.57,3.45,0,3.74-1.15,6.61-3.74,8.33s-6.32,2.59-11.49,2.59h-15.52v.57Zm39.94-1.72l4.02.57-.29,1.15h-8.62l6.32-35.35-3.45-.57.29-1.15h7.76l-6.32,35.35h.29Zm29.89-18.1c0,1.15-.29,2.3-1.15,3.16-.57,1.15-1.72,2.01-3.16,2.87s-3.16,1.44-5.17,2.01-4.31.86-6.9,1.15v2.01c0,.86,0,1.72.29,2.59s.57,1.44.86,2.01.86,1.15,1.72,1.44c.57.29,1.72.57,2.87.57,1.44,0,3.16-.29,4.31-.86,1.44-.57,2.59-1.15,3.74-1.72l.86,1.15c-.57.57-1.15.86-2.01,1.44s-1.44.86-2.59,1.44c-.86.29-1.72.86-2.87,1.15-.86.29-2.01.29-2.87.29-1.44,0-2.87-.29-3.74-.57-1.15-.29-2.01-1.15-2.87-1.72-.86-.86-1.15-1.72-1.72-2.87-.29-1.15-.57-2.3-.57-3.74s.29-3.16.57-4.6.86-2.87,1.44-4.02,1.44-2.3,2.3-3.45,1.72-2.01,2.87-2.59,2.01-1.15,3.16-1.72c1.15-.29,2.3-.57,3.45-.57s2.01,0,2.87.29,1.72.57,2.3,1.15,1.15,1.15,1.44,1.72.57,1.44.57,2.01Zm-16.09,7.47c2.01-.29,3.45-.57,4.89-.86,1.44-.57,2.59-1.15,3.45-1.72s1.72-1.44,2.01-2.3c.57-.86.57-1.72.57-2.59s-.29-1.72-.86-2.3-1.44-.86-2.3-.86c-1.15,0-2.01.29-2.87.86s-1.72,1.44-2.59,2.59-1.44,2.3-1.72,3.45c-.57,1.15-.86,2.59-1.15,3.74h.57Zm35.35,5.17c0,2.59-.86,4.6-2.59,5.75s-4.31,2.01-7.76,2.01c-1.44,0-2.87-.29-4.31-.57-1.15-.29-2.3-.86-3.16-1.15l1.15-6.03h1.15l.57,3.45c.57.57,1.15.86,2.01,1.44.86.29,1.72.57,2.87.57.86,0,1.44,0,2.3-.29.57-.29,1.44-.29,1.72-.86.57-.29.86-.86,1.15-1.44s.57-1.44.57-2.3-.29-1.72-.86-2.3-1.15-1.15-2.01-1.72-1.72-.86-2.59-1.44-1.72-.86-2.59-1.44-1.44-1.15-2.01-2.01-.86-1.72-.86-2.87c0-1.44.29-2.3.86-3.45.57-.86,1.15-1.72,2.01-2.3s1.72-.86,2.87-1.15,2.3-.29,3.45-.29,2.59,0,3.74.29,2.3.29,3.45.57l-.86,5.46h-1.15l-.29-2.87c-.57-.57-1.15-.86-2.01-1.15s-1.72-.29-2.59-.29c-1.44,0-2.59.29-3.45.86s-1.15,1.72-1.15,3.16c0,.86.29,1.44.86,2.01s1.15,1.15,2.01,1.72,1.72.86,2.59,1.44,1.72.86,2.59,1.72c.86.57,1.44,1.44,2.01,2.01.57.86.86,1.72.86,3.16l-.57.29Zm20.98,0c0,2.59-.86,4.6-2.59,5.75s-4.31,2.01-7.76,2.01c-1.44,0-2.87-.29-4.31-.57-1.15-.29-2.3-.86-3.16-1.15l1.15-6.03h1.15l.57,3.45c.57.57,1.15.86,2.01,1.44.86.29,1.72.57,2.87.57.86,0,1.44,0,2.3-.29.57-.29,1.44-.29,1.72-.86.57-.29.86-.86,1.15-1.44s.57-1.44.57-2.3-.29-1.72-.86-2.3-1.15-1.15-2.01-1.72-1.72-.86-2.59-1.44-1.72-.86-2.59-1.44-1.44-1.15-2.01-2.01-.86-1.72-.86-2.87c0-1.44.29-2.3.86-3.45.57-.86,1.15-1.72,2.01-2.3s1.72-.86,2.87-1.15,2.3-.29,3.45-.29,2.59,0,3.74.29,2.3.29,3.45.57l-.86,5.46h-1.15l-.29-2.87c-.57-.57-1.15-.86-2.01-1.15s-1.72-.29-2.59-.29c-1.44,0-2.59.29-3.45.86s-1.15,1.72-1.15,3.16c0,.86.29,1.44.86,2.01s1.15,1.15,2.01,1.72,1.72.86,2.59,1.44,1.72.86,2.59,1.72c.86.57,1.44,1.44,2.01,2.01.57.86.86,1.72.86,3.16l-.57.29Zm10.35,5.46l4.02.57-.29,1.15h-8.62l4.02-22.7-3.45-.57.29-1.15h7.76l-4.02,22.7h.29Zm5.75-30.75c0,.29,0,.86-.29,1.15s-.29.57-.57.86-.57.57-.86.57c-.29.29-.57.29-1.15.29-.29,0-.86,0-1.15-.29s-.57-.29-.86-.57-.57-.57-.57-.86c-.29-.29-.29-.57-.29-1.15,0-.29,0-.86.29-1.15s.29-.57.57-.86.57-.57.86-.57c.29-.29.57-.29,1.15-.29.29,0,.86,0,1.15.29s.57.29.86.57.57.57.57.86c.29.29.29.57.29,1.15Zm21.55,13.22c0-.86-.29-1.44-.57-2.01s-1.15-.86-2.01-.86-1.44.29-2.3.57-1.44.86-2.3,1.44c-.57.57-1.44,1.15-2.01,1.72s-1.15,1.44-1.44,2.01l-2.87,16.38h-4.31l4.02-22.7-3.16-.57.29-1.15h7.18l-.57,5.17c.57-.86,1.44-1.72,2.01-2.3.86-.57,1.44-1.44,2.3-1.72.86-.57,1.44-.86,2.3-1.15s1.72-.29,2.59-.29,1.44,0,2.3.29l1.72.86c.57.57.86,1.15,1.15,1.72s.29,1.44.29,2.59v.86c0,.29,0,.86-.29,1.15,0,.29-.29.86-.29,1.44s0,.86-.29,1.15l-2.3,13.51,3.45.57-.29,1.15h-7.76l2.59-15.23c0-.29,0-.86.29-1.15,0-.29,0-.86.29-1.15,0-.29,0-.86.29-1.15v-.86l-.29-.29Zm18.1,16.95c.57,0,1.15,0,1.72-.29l1.72-.86c.57-.29,1.15-.86,1.72-1.15.57-.57,1.15-.86,1.44-1.15l2.87-16.09c-.29,0-.86-.29-1.15-.29s-.57-.29-.86-.29h-2.3c-1.44,0-2.59.29-4.02,1.15-1.15.86-2.3,2.01-3.16,3.16-.86,1.44-1.44,2.87-2.01,4.6s-.86,3.45-.86,5.46c0,.86,0,1.72.29,2.59s.57,1.44.86,2.01.86.86,1.44,1.44c.57.29,1.15.57,2.01.57l.29-.86Zm6.32-1.44l-1.44,1.44c-.57.57-1.15,1.15-2.01,1.44-.86.57-1.44.86-2.3,1.15s-1.72.57-2.59.57c-1.15,0-2.3-.29-3.16-.57s-1.72-1.15-2.3-1.72c-.57-.86-1.15-1.72-1.44-2.87s-.57-2.3-.57-3.45c0-1.44.29-3.16.57-4.6s.86-2.87,1.44-4.02,1.44-2.3,2.3-3.45,2.01-2.01,2.87-2.59c1.15-.86,2.3-1.44,3.45-1.72s2.59-.57,4.02-.57h2.01c.86,0,1.44.29,2.3.29s1.44.29,2.3.29,1.44.29,2.01.29l-4.31,25c-.29,2.01-.86,3.45-1.44,4.89s-1.44,2.3-2.3,3.16-2.3,1.44-3.45,1.72c-1.44.29-2.87.57-4.6.57-.86,0-1.72,0-2.87-.29-.86,0-1.72-.29-2.59-.57s-1.44-.29-2.01-.57-1.15-.57-1.44-.57l.57-6.03h1.15l.86,3.16c.57.57,1.44,1.15,2.59,1.44s2.3.57,3.74.57c1.15,0,2.3-.29,3.16-.57s1.72-.86,2.3-1.44,1.15-1.44,1.44-2.3.57-1.72.57-2.59l1.15-6.03v.57Zm56.9-28.74l-4.6-.57.29-1.44h12.07l-.29,1.44-4.6.57-3.74,20.98c-.29,1.72-.86,3.16-1.44,4.6s-1.72,2.87-2.87,4.02-2.87,2.01-4.6,2.87c-1.72.57-4.02,1.15-6.32,1.15-4.02,0-7.18-.86-9.2-2.59s-3.16-4.02-3.16-7.18v-1.44c0-.57,0-.86.29-1.44l3.74-21.27-4.31-.57.29-1.44h14.08l-.29,1.44-4.6.57-3.74,20.98c0,.57-.29.86-.29,1.44v1.44c0,1.15.29,2.01.57,2.87s.86,1.72,1.44,2.3,1.44,1.15,2.3,1.44,2.3.57,3.45.57c2.01,0,3.74-.29,5.17-.86s2.59-1.15,3.45-2.01,1.72-2.01,2.3-3.16.86-2.3,1.15-3.45l3.74-21.27h-.29Zm24.43,13.51c0-.86-.29-1.44-.57-2.01s-1.15-.86-2.01-.86-1.44.29-2.3.57-1.44.86-2.3,1.44c-.57.57-1.44,1.15-2.01,1.72s-1.15,1.44-1.44,2.01l-2.87,16.38h-4.31l4.02-22.7-3.16-.57.29-1.15h7.18l-.57,5.17c.57-.86,1.44-1.72,2.01-2.3.86-.57,1.44-1.44,2.3-1.72.86-.57,1.44-.86,2.3-1.15s1.72-.29,2.59-.29,1.44,0,2.3.29l1.72.86c.57.57.86,1.15,1.15,1.72s.29,1.44.29,2.59v.86c0,.29,0,.86-.29,1.15,0,.29-.29.86-.29,1.44s0,.86-.29,1.15l-2.3,13.51,3.45.57-.29,1.15h-7.76l2.59-15.23c0-.29,0-.86.29-1.15,0-.29,0-.86.29-1.15v-2.3Zm14.66,17.82l4.02.57-.29,1.15h-8.62l4.02-22.7-3.45-.57.29-1.15h7.76l-4.02,22.7h.29Zm5.75-30.75c0,.29,0,.86-.29,1.15s-.29.57-.57.86-.57.57-.86.57c-.29.29-.57.29-1.15.29-.29,0-.86,0-1.15-.29s-.57-.29-.86-.57-.57-.57-.57-.86c-.29-.29-.29-.57-.29-1.15,0-.29,0-.86.29-1.15s.29-.57.57-.86.57-.57.86-.57c.29-.29.57-.29,1.15-.29.29,0,.86,0,1.15.29s.57.29.86.57.57.57.57.86c.29.29.29.57.29,1.15Zm19.54,16.67c.57-.86,1.15-2.01,1.44-2.87s.29-1.72.29-2.3-.29-1.15-.57-1.44-.86-.57-1.15-.86l.29-1.15h4.89l.57.57c.29.29.29.57.29.86,0,.57-.29,1.44-.29,2.3-.29.86-.86,2.01-1.72,3.45l-11.21,17.82h-2.01l-4.89-23.28-2.87-.57.29-1.15h6.61l3.74,19.25,6.61-10.63h-.29Zm28.45-3.74c0,1.15-.29,2.3-1.15,3.16-.57,1.15-1.72,2.01-3.16,2.87s-3.16,1.44-5.17,2.01-4.31.86-6.9,1.15v2.01c0,.86,0,1.72.29,2.59s.57,1.44.86,2.01.86,1.15,1.72,1.44c.57.29,1.72.57,2.87.57,1.44,0,3.16-.29,4.31-.86,1.44-.57,2.59-1.15,3.74-1.72l.86,1.15c-.57.57-1.15.86-2.01,1.44s-1.44.86-2.59,1.44c-.86.29-1.72.86-2.87,1.15-.86.29-2.01.29-2.87.29-1.44,0-2.87-.29-3.74-.57-1.15-.29-2.01-1.15-2.87-1.72-.86-.86-1.15-1.72-1.72-2.87-.29-1.15-.57-2.3-.57-3.74s.29-3.16.57-4.6.86-2.87,1.44-4.02,1.44-2.3,2.3-3.45,1.72-2.01,2.87-2.59,2.01-1.15,3.16-1.72c1.15-.29,2.3-.57,3.45-.57s2.01,0,2.87.29,1.72.57,2.3,1.15,1.15,1.15,1.44,1.72.57,1.44.57,2.01Zm-16.09,7.47c2.01-.29,3.45-.57,4.89-.86,1.44-.57,2.59-1.15,3.45-1.72s1.72-1.44,2.01-2.3c.57-.86.57-1.72.57-2.59s-.29-1.72-.86-2.3-1.44-.86-2.3-.86c-1.15,0-2.01.29-2.87.86s-1.72,1.44-2.59,2.59-1.44,2.3-1.72,3.45c-.57,1.15-.86,2.59-1.15,3.74h.57Zm36.21-12.93h1.15c.29,0,.86,0,.86.29l-1.15,6.32h-1.15l-.86-3.45c-.86,0-1.44.29-2.3.57s-1.44.86-2.3,1.15c-.57.57-1.44,1.15-2.01,1.72s-1.15,1.44-1.72,2.3l-2.87,16.09h-4.31l4.02-22.7-3.16-.57.29-1.15h7.18l-.86,5.46c.57-1.15,1.44-2.01,2.3-2.87s1.44-1.44,2.3-2.01,1.44-.86,2.3-1.15,1.44-.29,2.3-.29v.29Zm20.12,18.1c0,2.59-.86,4.6-2.59,5.75s-4.31,2.01-7.76,2.01c-1.44,0-2.87-.29-4.31-.57-1.15-.29-2.3-.86-3.16-1.15l1.15-6.03h1.15l.57,3.45c.57.57,1.15.86,2.01,1.44.86.29,1.72.57,2.87.57.86,0,1.44,0,2.3-.29.57-.29,1.44-.29,1.72-.86.57-.29.86-.86,1.15-1.44s.57-1.44.57-2.3-.29-1.72-.86-2.3-1.15-1.15-2.01-1.72-1.72-.86-2.59-1.44-1.72-.86-2.59-1.44-1.44-1.15-2.01-2.01-.86-1.72-.86-2.87c0-1.44.29-2.3.86-3.45.57-.86,1.15-1.72,2.01-2.3s1.72-.86,2.87-1.15,2.3-.29,3.45-.29,2.59,0,3.74.29,2.3.29,3.45.57l-.86,5.46h-1.15l-.29-2.87c-.57-.57-1.15-.86-2.01-1.15s-1.72-.29-2.59-.29c-1.44,0-2.59.29-3.45.86s-1.15,1.72-1.15,3.16c0,.86.29,1.44.86,2.01s1.15,1.15,2.01,1.72,1.72.86,2.59,1.44,1.72.86,2.59,1.72c.86.57,1.44,1.44,2.01,2.01.57.86.86,1.72.86,3.16l-.57.29Zm10.35,5.46l4.02.57-.29,1.15h-8.62l4.02-22.7-3.45-.57.29-1.15h7.76l-4.02,22.7h.29Zm5.75-30.75c0,.29,0,.86-.29,1.15s-.29.57-.57.86-.57.57-.86.57c-.29.29-.57.29-1.15.29-.29,0-.86,0-1.15-.29s-.57-.29-.86-.57-.57-.57-.57-.86c-.29-.29-.29-.57-.29-1.15,0-.29,0-.86.29-1.15s.29-.57.57-.86.57-.57.86-.57c.29-.29.57-.29,1.15-.29.29,0,.86,0,1.15.29s.57.29.86.57.57.57.57.86c.29.29.29.57.29,1.15Zm8.62,28.16c0,.86.29,1.44.57,1.72s.86.57,1.44.57c.86,0,1.44,0,2.01-.29.57,0,1.15-.29,2.01-.57l.57,1.15c-.86.57-1.72,1.15-2.87,1.72s-2.3.57-3.74.57c-.86,0-1.44,0-2.01-.29s-1.15-.57-1.44-.86-.57-.86-.86-1.44-.29-1.15-.29-2.01v-1.72c0-.57.29-1.15.29-1.72l2.59-14.66h-3.16l.29-1.15,3.45-1.15,3.45-5.46h1.72l-.86,5.46h5.75l-.29,2.3h-5.75l-2.59,14.37c-.29.86-.29,1.44-.29,2.01v1.44Zm9.48-20.12h6.61l3.74,19.25,6.32-10.63c.57-1.15.86-2.01,1.15-2.87s.29-1.72.29-2.3-.29-1.15-.57-1.44-.86-.57-1.15-.86l.29-1.15h4.89l.57.57c.29.29.29.57.29.86,0,.57-.29,1.44-.57,2.3s-.86,2.01-1.72,3.45l-10.35,17.53c-1.15,1.72-2.01,3.45-2.87,4.6-.86,1.44-1.72,2.59-2.87,3.45-.86.86-2.01,1.72-2.87,2.3-1.15.57-2.01.86-3.45.86h-2.01c-.29,0-.57,0-.86-.29-.29,0-.57,0-.86-.29l.86-5.46h1.15l.29,2.59c.57.29,1.15.57,2.01.57s1.44-.29,2.3-.57c.57-.57,1.44-.86,2.01-1.72.57-.57,1.15-1.44,1.72-2.3s1.15-1.72,1.44-2.59l1.15-2.01-4.89-22.41-2.87-.57.29-1.15.57.29Z"/>
  </g>
</svg>